# Blender v2.69 (sub 0) OBJ File: ''
# www.blender.org
o Plane
v 0.250000 -0.500000 -0.000000
v -0.250000 -0.500000 -0.000000
v 0.250000 0.500000 0.000000
v -0.250000 0.500000 0.000000
v 0.250000 -1.500000 -0.000000
v -0.250000 -1.500000 -0.000000
v 0.250000 -2.500000 -0.000000
v -0.250000 -2.500000 -0.000000
v 0.250001 -3.500000 -0.000000
v -0.249999 -3.500000 -0.000000
v 0.250001 -4.500000 -0.000000
v -0.249999 -4.500000 -0.000000
v 0.250001 -5.500000 -0.000000
v -0.249999 -5.500000 -0.000000
v 0.250001 -6.500000 -0.000000
v -0.249999 -6.500000 -0.000000
v 0.250001 -7.500000 -0.000001
v -0.249999 -7.500000 -0.000001
v 0.000000 -0.500000 -0.000000
v -0.000000 0.500000 0.000000
v 0.000000 -1.500000 -0.000000
v 0.000000 -2.500000 -0.000000
v 0.000001 -3.500000 -0.000000
v 0.000001 -4.500000 -0.000000
v 0.000001 -5.500000 -0.000000
v 0.000001 -6.500000 -0.000000
v 0.000001 -7.500000 -0.000001
vn 0.000000 -0.000000 1.000000
s off
f 19//1 1//1 20//1
f 19//1 2//1 21//1
f 21//1 6//1 22//1
f 22//1 8//1 23//1
f 23//1 10//1 24//1
f 24//1 12//1 25//1
f 25//1 14//1 26//1
f 26//1 16//1 27//1
f 2//1 19//1 4//1
f 1//1 19//1 5//1
f 5//1 21//1 7//1
f 7//1 22//1 9//1
f 9//1 23//1 11//1
f 11//1 24//1 13//1
f 13//1 25//1 15//1
f 15//1 26//1 17//1
f 1//1 3//1 20//1
f 2//1 6//1 21//1
f 6//1 8//1 22//1
f 8//1 10//1 23//1
f 10//1 12//1 24//1
f 12//1 14//1 25//1
f 14//1 16//1 26//1
f 16//1 18//1 27//1
f 19//1 20//1 4//1
f 19//1 21//1 5//1
f 21//1 22//1 7//1
f 22//1 23//1 9//1
f 23//1 24//1 11//1
f 24//1 25//1 13//1
f 25//1 26//1 15//1
f 26//1 27//1 17//1
