# Blender v2.69 (sub 0) OBJ File: ''
# www.blender.org
o Plane
v -0.500000 0.000000 -0.500000
v 0.500000 0.000000 -0.500000
v -0.500000 0.000000 0.500000
v 0.500000 0.000000 0.500000
v -0.500000 0.000000 -1.500000
v 0.500000 0.000000 -1.500000
v -0.500000 0.000000 -2.500000
v 0.500000 0.000000 -2.500000
v -0.500000 0.000000 -3.500000
v 0.500000 0.000000 -3.500000
v -0.500000 0.000000 -4.500000
v 0.500000 0.000000 -4.500000
v -0.500000 0.000000 -5.500000
v 0.500000 0.000000 -5.500000
v -0.500000 0.000000 -6.500000
v 0.500000 0.000000 -6.500000
v -0.500000 0.000000 -7.500000
v 0.500000 0.000000 -7.500000
vn 0.000000 1.000000 0.000000
s off
f 2//1 1//1 4//1
f 1//1 2//1 5//1
f 5//1 6//1 7//1
f 7//1 8//1 9//1
f 9//1 10//1 11//1
f 11//1 12//1 13//1
f 13//1 14//1 15//1
f 15//1 16//1 17//1
f 1//1 3//1 4//1
f 2//1 6//1 5//1
f 6//1 8//1 7//1
f 8//1 10//1 9//1
f 10//1 12//1 11//1
f 12//1 14//1 13//1
f 14//1 16//1 15//1
f 16//1 18//1 17//1
