# Blender v2.66 (sub 1) OBJ File: ''
# www.blender.org
mtllib box.mtl
o box
v -2.000000 -2.000000 2.000000
v -0.666667 -2.000000 2.000000
v -2.000000 -0.666667 2.000000
v -0.666667 -0.666667 2.000000
v 0.666667 -2.000000 2.000000
v 0.666667 -0.666667 2.000000
v 2.000000 -2.000000 2.000000
v 2.000000 -0.666667 2.000000
v -2.000000 0.666667 2.000000
v -0.666667 0.666667 2.000000
v 0.666667 0.666667 2.000000
v 2.000000 0.666667 2.000000
v -2.000000 2.000000 2.000000
v -0.666667 2.000000 2.000000
v 0.666667 2.000000 2.000000
v 2.000000 2.000000 2.000000
v -2.000000 2.000000 0.666667
v -0.666667 2.000000 0.666667
v 0.666667 2.000000 0.666667
v 2.000000 2.000000 0.666667
v -2.000000 2.000000 -0.666667
v -0.666667 2.000000 -0.666667
v 0.666667 2.000000 -0.666667
v 2.000000 2.000000 -0.666667
v -2.000000 2.000000 -2.000000
v -0.666667 2.000000 -2.000000
v 0.666667 2.000000 -2.000000
v 2.000000 2.000000 -2.000000
v -2.000000 0.666667 -2.000000
v -0.666667 0.666667 -2.000000
v 0.666667 0.666667 -2.000000
v 2.000000 0.666667 -2.000000
v -2.000000 -0.666667 -2.000000
v -0.666667 -0.666667 -2.000000
v 0.666667 -0.666667 -2.000000
v 2.000000 -0.666667 -2.000000
v -2.000000 -2.000000 -2.000000
v -0.666667 -2.000000 -2.000000
v 0.666667 -2.000000 -2.000000
v 2.000000 -2.000000 -2.000000
v -2.000000 -2.000000 -0.666667
v -0.666667 -2.000000 -0.666667
v 0.666667 -2.000000 -0.666667
v 2.000000 -2.000000 -0.666667
v -2.000000 -2.000000 0.666667
v -0.666667 -2.000000 0.666667
v 0.666667 -2.000000 0.666667
v 2.000000 -2.000000 0.666667
v 2.000000 -0.666667 -0.666667
v 2.000000 -0.666667 0.666667
v 2.000000 0.666667 -0.666667
v 2.000000 0.666667 0.666667
v -2.000000 -0.666667 -0.666667
v -2.000000 -0.666667 0.666667
v -2.000000 0.666667 -0.666667
v -2.000000 0.666667 0.666667
vt 0.004689 0.007037
vt 0.333593 0.007037
vt 0.004689 0.335941
vt 0.333593 0.335941
vt 0.662501 0.007037
vt 0.662501 0.335941
vt 0.991405 0.007037
vt 0.991405 0.335941
vt 0.004689 0.664849
vt 0.333593 0.664849
vt 0.662501 0.664849
vt 0.991405 0.664849
vt 0.004689 0.993753
vt 0.333593 0.993753
vt 0.662501 0.993753
vt 0.991405 0.993753
vt 0.004689 1.322657
vt 0.333593 1.322657
vt 0.662501 1.322657
vt 0.991405 1.322657
vt 0.004689 1.651565
vt 0.333593 1.651565
vt 0.662501 1.651565
vt 0.991405 1.651565
vt 0.004689 1.980469
vt 0.333593 1.980469
vt 0.662501 1.980469
vt 0.991405 1.980469
vt 0.004689 2.309373
vt 0.333593 2.309373
vt 0.662501 2.309373
vt 0.991405 2.309373
vt 0.004689 2.638281
vt 0.333593 2.638281
vt 0.662501 2.638281
vt 0.991405 2.638281
vt 0.004689 2.967185
vt 0.333593 2.967185
vt 0.662501 2.967185
vt 0.991405 2.967185
vt 0.004689 3.296089
vt 0.333593 3.296089
vt 0.662501 3.296089
vt 0.991405 3.296089
vt 0.004689 3.624997
vt 0.333593 3.624997
vt 0.662501 3.624997
vt 0.991405 3.624997
vt 0.004689 3.953901
vt 0.333593 3.953901
vt 0.662501 3.953901
vt 0.991405 3.953901
vt 1.649217 0.007037
vt 1.978121 0.007037
vt 1.649217 0.335941
vt 1.978121 0.335941
vt 1.320309 0.007037
vt 1.320309 0.335941
vt 1.649217 0.664849
vt 1.978121 0.664849
vt 1.320309 0.664849
vt 1.649217 0.993753
vt 1.978121 0.993753
vt 1.320309 0.993753
vt -0.982027 0.007037
vt -0.653123 0.007037
vt -0.982027 0.335941
vt -0.653123 0.335941
vt -0.324215 0.007037
vt -0.324215 0.335941
vt -0.982027 0.664849
vt -0.653123 0.664849
vt -0.324215 0.664849
vt -0.982027 0.993753
vt -0.653123 0.993753
vt -0.324215 0.993753
vn 0.000000 -0.000000 1.000000
vn 0.000000 1.000000 0.000000
vn 0.000000 0.000000 -1.000000
vn -0.000000 -1.000000 -0.000000
vn 1.000000 0.000000 0.000000
vn -1.000000 -0.000000 -0.000000
usemtl Material
s off
f 1/1/1 2/2/1 3/3/1
f 3/3/1 2/2/1 4/4/1
f 2/2/1 5/5/1 4/4/1
f 4/4/1 5/5/1 6/6/1
f 5/5/1 7/7/1 6/6/1
f 6/6/1 7/7/1 8/8/1
f 3/3/1 4/4/1 9/9/1
f 9/9/1 4/4/1 10/10/1
f 4/4/1 6/6/1 10/10/1
f 10/10/1 6/6/1 11/11/1
f 6/6/1 8/8/1 11/11/1
f 11/11/1 8/8/1 12/12/1
f 9/9/1 10/10/1 13/13/1
f 13/13/1 10/10/1 14/14/1
f 10/10/1 11/11/1 14/14/1
f 14/14/1 11/11/1 15/15/1
f 11/11/1 12/12/1 15/15/1
f 15/15/1 12/12/1 16/16/1
f 13/13/2 14/14/2 17/17/2
f 17/17/2 14/14/2 18/18/2
f 14/14/2 15/15/2 18/18/2
f 18/18/2 15/15/2 19/19/2
f 15/15/2 16/16/2 19/19/2
f 19/19/2 16/16/2 20/20/2
f 17/17/2 18/18/2 21/21/2
f 21/21/2 18/18/2 22/22/2
f 18/18/2 19/19/2 22/22/2
f 22/22/2 19/19/2 23/23/2
f 19/19/2 20/20/2 23/23/2
f 23/23/2 20/20/2 24/24/2
f 21/21/2 22/22/2 25/25/2
f 25/25/2 22/22/2 26/26/2
f 22/22/2 23/23/2 26/26/2
f 26/26/2 23/23/2 27/27/2
f 23/23/2 24/24/2 27/27/2
f 27/27/2 24/24/2 28/28/2
f 25/25/3 26/26/3 29/29/3
f 29/29/3 26/26/3 30/30/3
f 26/26/3 27/27/3 30/30/3
f 30/30/3 27/27/3 31/31/3
f 27/27/3 28/28/3 31/31/3
f 31/31/3 28/28/3 32/32/3
f 29/29/3 30/30/3 33/33/3
f 33/33/3 30/30/3 34/34/3
f 30/30/3 31/31/3 34/34/3
f 34/34/3 31/31/3 35/35/3
f 31/31/3 32/32/3 35/35/3
f 35/35/3 32/32/3 36/36/3
f 33/33/3 34/34/3 37/37/3
f 37/37/3 34/34/3 38/38/3
f 34/34/3 35/35/3 38/38/3
f 38/38/3 35/35/3 39/39/3
f 35/35/3 36/36/3 39/39/3
f 39/39/3 36/36/3 40/40/3
f 37/37/4 38/38/4 41/41/4
f 41/41/4 38/38/4 42/42/4
f 38/38/4 39/39/4 42/42/4
f 42/42/4 39/39/4 43/43/4
f 39/39/4 40/40/4 43/43/4
f 43/43/4 40/40/4 44/44/4
f 41/41/4 42/42/4 45/45/4
f 45/45/4 42/42/4 46/46/4
f 42/42/4 43/43/4 46/46/4
f 46/46/4 43/43/4 47/47/4
f 43/43/4 44/44/4 47/47/4
f 47/47/4 44/44/4 48/48/4
f 46/46/4 1/49/4 45/45/4
f 1/49/4 46/46/4 2/50/4
f 46/46/4 47/47/4 2/50/4
f 2/50/4 47/47/4 5/51/4
f 47/47/4 48/48/4 5/51/4
f 5/51/4 48/48/4 7/52/4
f 44/53/5 40/54/5 49/55/5
f 49/55/5 40/54/5 36/56/5
f 48/57/5 44/53/5 50/58/5
f 50/58/5 44/53/5 49/55/5
f 7/7/5 48/57/5 8/8/5
f 8/8/5 48/57/5 50/58/5
f 49/55/5 36/56/5 51/59/5
f 51/59/5 36/56/5 32/60/5
f 50/58/5 49/55/5 52/61/5
f 52/61/5 49/55/5 51/59/5
f 8/8/5 50/58/5 12/12/5
f 12/12/5 50/58/5 52/61/5
f 51/59/5 32/60/5 24/62/5
f 24/62/5 32/60/5 28/63/5
f 52/61/5 51/59/5 20/64/5
f 20/64/5 51/59/5 24/62/5
f 12/12/5 52/61/5 16/16/5
f 16/16/5 52/61/5 20/64/5
f 37/65/6 41/66/6 33/67/6
f 33/67/6 41/66/6 53/68/6
f 41/66/6 45/69/6 53/68/6
f 53/68/6 45/69/6 54/70/6
f 45/69/6 1/1/6 54/70/6
f 54/70/6 1/1/6 3/3/6
f 33/67/6 53/68/6 29/71/6
f 29/71/6 53/68/6 55/72/6
f 53/68/6 54/70/6 55/72/6
f 55/72/6 54/70/6 56/73/6
f 54/70/6 3/3/6 56/73/6
f 56/73/6 3/3/6 9/9/6
f 29/71/6 55/72/6 25/74/6
f 25/74/6 55/72/6 21/75/6
f 55/72/6 56/73/6 21/75/6
f 21/75/6 56/73/6 17/76/6
f 56/73/6 9/9/6 17/76/6
f 17/76/6 9/9/6 13/13/6
