# Blender v2.69 (sub 0) OBJ File: 'tunnel_1.blend'
# www.blender.org
o Cube
v -0.050378 0.981487 0.539952
v -0.050378 0.981487 0.460048
v -0.043936 0.993529 0.539952
v -0.043936 0.993529 0.460048
v -0.108875 0.980615 0.539952
v -0.108875 0.980615 0.460048
v -0.110302 0.984966 0.539952
v -0.110302 0.984966 0.460048
v -0.036389 0.936036 0.539952
v -0.043822 0.929445 0.460048
v -0.043822 0.929445 0.539952
v -0.036389 0.936036 0.460048
v -0.021400 0.921412 0.539952
v -0.025117 0.913087 0.460048
v -0.025117 0.913087 0.539952
v -0.021400 0.921412 0.460048
v 0.050378 0.981487 0.539952
v 0.050378 0.981487 0.460048
v 0.043936 0.993529 0.539952
v 0.043936 0.993529 0.460048
v 0.000000 0.914115 0.539952
v 0.000000 0.904056 0.539952
v 0.000000 0.914115 0.460048
v 0.000000 0.904056 0.460048
v 0.108875 0.980615 0.539952
v 0.108875 0.980615 0.460048
v 0.110302 0.984966 0.539952
v 0.110302 0.984966 0.460048
v 0.036389 0.936036 0.539952
v 0.043822 0.929445 0.460048
v 0.043822 0.929445 0.539952
v 0.036389 0.936036 0.460048
v 0.021400 0.921412 0.539952
v 0.025117 0.913087 0.460048
v 0.025117 0.913087 0.539952
v 0.021400 0.921412 0.460048
v -0.050378 0.981488 -0.460048
v -0.050378 0.981488 -0.539952
v -0.043936 0.993529 -0.460048
v -0.043936 0.993529 -0.539952
v -0.108875 0.980615 -0.460048
v -0.108875 0.980615 -0.539952
v -0.110302 0.984966 -0.460048
v -0.110302 0.984966 -0.539952
v -0.036389 0.936036 -0.460048
v -0.043822 0.929445 -0.539952
v -0.043822 0.929445 -0.460048
v -0.036389 0.936036 -0.539952
v -0.021400 0.921412 -0.460048
v -0.025117 0.913087 -0.539952
v -0.025117 0.913087 -0.460048
v -0.021400 0.921412 -0.539952
v 0.050378 0.981488 -0.460048
v 0.050378 0.981488 -0.539952
v 0.043936 0.993529 -0.460048
v 0.043936 0.993529 -0.539952
v 0.000000 0.914116 -0.460048
v 0.000000 0.904056 -0.460048
v 0.000000 0.914116 -0.539952
v 0.000000 0.904056 -0.539952
v 0.108875 0.980615 -0.460048
v 0.108875 0.980615 -0.539952
v 0.110302 0.984966 -0.460048
v 0.110302 0.984966 -0.539952
v 0.036389 0.936036 -0.460048
v 0.043822 0.929445 -0.539952
v 0.043822 0.929445 -0.460048
v 0.036389 0.936036 -0.539952
v 0.021400 0.921412 -0.460048
v 0.025117 0.913087 -0.539952
v 0.025117 0.913087 -0.460048
v 0.021400 0.921412 -0.539952
vt 0.914196 1.379495
vt 0.832173 3.773423
vt 0.951653 1.108100
vt -0.058410 -0.176733
vt -0.058410 0.521030
vt 0.474960 -0.176733
vt 0.588477 1.115915
vt 0.317689 1.115915
vt 0.588477 3.270774
vt 0.647180 3.043788
vt 0.588478 3.355047
vt 0.607293 3.773423
vt 0.317689 0.874962
vt 0.317689 0.455572
vt 0.200981 0.874962
vt 0.588477 0.036181
vt 0.632780 0.534649
vt 0.832173 0.549593
vt 0.876476 3.274956
vt 1.075869 3.260012
vt 0.890876 0.765817
vt 0.919012 0.420931
vt 0.588477 0.426917
vt 0.317688 0.426917
vt 0.670500 2.430110
vt 0.707957 2.701505
vt 0.675316 3.388674
vt 0.832173 0.454558
vt 0.850989 0.036181
vt 0.317688 0.036181
vt 0.828861 0.368132
vt 0.474960 0.521030
vt 0.317689 3.270774
vt 0.200981 0.455572
vt 1.072557 3.441472
vn 0.000000 0.000000 1.000000
vn -0.000003 0.000000 1.000000
vn -0.681936 -0.362651 0.635151
vn -0.297311 -0.342204 -0.891324
vn -0.297311 -0.342204 0.891324
vn -0.466659 -0.654439 -0.594897
vn -0.681936 -0.362651 -0.635151
vn 0.000000 0.000000 -1.000000
vn 0.000002 0.000000 -1.000000
vn 0.000000 -0.769768 -0.638264
vn -0.713351 -0.234022 0.660579
vn -0.713350 -0.234019 -0.660581
vn -0.466659 -0.654439 0.594897
vn -0.377544 -0.641652 0.667592
vn -0.377544 -0.641652 -0.667592
vn 0.000001 0.000000 -1.000000
vn 0.000000 -0.769768 0.638264
vn 0.681936 -0.362651 0.635151
vn 0.000003 0.000000 1.000000
vn 0.297311 -0.342204 -0.891324
vn 0.466659 -0.654439 -0.594897
vn 0.297311 -0.342204 0.891324
vn 0.681936 -0.362651 -0.635151
vn 0.377544 -0.641652 -0.667592
vn 0.713350 -0.234022 0.660580
vn 0.466659 -0.654439 0.594897
vn 0.713350 -0.234019 -0.660581
vn 0.377544 -0.641652 0.667592
vn 0.000001 0.000000 1.000000
vn -0.713349 -0.234022 0.660581
vn -0.000001 0.000000 1.000000
vn 0.713349 -0.234022 0.660581
s 1
f 9/1/1 3/2/2 11/3/3
f 2/4/4 1/5/5 6/6/6
f 10/7/7 11/8/3 2/9/4
f 16/10/8 23/11/9 24/12/10
f 7/13/11 8/14/12 5/15/13
f 4/16/8 2/17/4 6/18/6
f 1/19/5 3/2/2 5/20/13
f 13/21/1 9/1/1 15/22/14
f 14/23/15 15/24/14 10/7/7
f 4/16/8 12/25/16 10/26/7
f 12/25/16 16/10/8 14/27/15
f 21/28/1 13/21/1 22/29/17
f 24/16/10 22/30/17 14/23/15
f 29/1/1 31/3/18 19/2/19
f 18/4/20 26/6/21 17/5/22
f 30/7/23 18/9/20 31/8/18
f 36/10/8 34/27/24 24/12/10
f 27/13/25 25/15/26 28/14/27
f 20/16/8 28/31/27 26/18/21
f 17/19/22 25/20/26 19/2/19
f 33/21/1 35/22/28 29/1/1
f 34/23/24 30/7/23 35/24/28
f 20/16/8 18/17/20 30/26/23
f 32/25/8 30/26/23 34/27/24
f 21/28/1 22/29/17 33/21/1
f 24/16/10 34/23/24 22/30/17
f 45/1/1 39/2/29 47/3/3
f 38/4/4 37/5/5 42/6/6
f 46/7/7 47/8/3 38/9/4
f 52/10/8 59/11/8 60/12/10
f 43/13/30 44/14/12 41/15/13
f 40/16/8 38/17/4 42/18/6
f 37/19/5 39/2/29 41/20/13
f 49/21/1 45/1/1 51/22/14
f 50/23/15 51/24/14 46/7/7
f 40/16/8 48/25/16 46/26/7
f 48/25/16 52/10/8 50/27/15
f 57/28/1 49/21/1 58/29/17
f 60/16/10 58/30/17 50/23/15
f 65/1/1 67/3/18 55/2/31
f 54/4/20 62/6/21 53/5/22
f 66/7/23 54/9/20 67/8/18
f 72/10/8 70/27/24 60/12/10
f 63/13/32 61/15/26 64/14/27
f 56/16/8 64/31/27 62/18/21
f 53/19/22 61/20/26 55/2/31
f 69/21/1 71/22/28 65/1/1
f 70/23/24 66/7/23 71/24/28
f 56/16/8 54/17/20 66/26/23
f 68/25/8 66/26/23 70/27/24
f 57/28/1 58/29/17 69/21/1
f 60/16/10 70/23/24 58/30/17
f 3/2/2 1/19/5 11/3/3
f 1/5/5 5/32/13 6/6/6
f 11/8/3 1/33/5 2/9/4
f 14/27/15 16/10/8 24/12/10
f 8/14/12 6/34/6 5/15/13
f 8/31/12 4/16/8 6/18/6
f 3/2/2 7/35/11 5/20/13
f 9/1/1 11/3/3 15/22/14
f 15/24/14 11/8/3 10/7/7
f 2/17/4 4/16/8 10/26/7
f 10/26/7 12/25/16 14/27/15
f 13/21/1 15/22/14 22/29/17
f 22/30/17 15/24/14 14/23/15
f 31/3/18 17/19/22 19/2/19
f 26/6/21 25/32/26 17/5/22
f 18/9/20 17/33/22 31/8/18
f 23/11/9 36/10/8 24/12/10
f 25/15/26 26/34/21 28/14/27
f 18/17/20 20/16/8 26/18/21
f 25/20/26 27/35/25 19/2/19
f 35/22/28 31/3/18 29/1/1
f 30/7/23 31/8/18 35/24/28
f 32/25/8 20/16/8 30/26/23
f 36/10/8 32/25/8 34/27/24
f 22/29/17 35/22/28 33/21/1
f 34/23/24 35/24/28 22/30/17
f 39/2/29 37/19/5 47/3/3
f 37/5/5 41/32/13 42/6/6
f 47/8/3 37/33/5 38/9/4
f 50/27/15 52/10/8 60/12/10
f 44/14/12 42/34/6 41/15/13
f 44/31/12 40/16/8 42/18/6
f 39/2/29 43/35/30 41/20/13
f 45/1/1 47/3/3 51/22/14
f 51/24/14 47/8/3 46/7/7
f 38/17/4 40/16/8 46/26/7
f 46/26/7 48/25/16 50/27/15
f 49/21/1 51/22/14 58/29/17
f 58/30/17 51/24/14 50/23/15
f 67/3/18 53/19/22 55/2/31
f 62/6/21 61/32/26 53/5/22
f 54/9/20 53/33/22 67/8/18
f 59/11/8 72/10/8 60/12/10
f 61/15/26 62/34/21 64/14/27
f 54/17/20 56/16/8 62/18/21
f 61/20/26 63/35/32 55/2/31
f 71/22/28 67/3/18 65/1/1
f 66/7/23 67/8/18 71/24/28
f 68/25/8 56/16/8 66/26/23
f 72/10/8 68/25/8 70/27/24
f 58/29/17 71/22/28 69/21/1
f 70/23/24 71/24/28 58/30/17
